{"title":"47.Ronin.2013.CAM.XViD-MORS","uid":9470995,"size":730179030,"categoryP":"video","categoryS":"movies","magnet":"?xt=urn:btih:d9aabe7bad6ec643e9ad1f733cd0bf842eb0fd60&amp;dn=47.Ronin.2013.CAM.XViD-MORS&amp;tr=udp%3A%2F%2Ftracker.openbittorrent.com%3A80&amp;tr=udp%3A%2F%2Fopen.demonii.com%3A1337&amp;tr=udp%3A%2F%2Ftracker.coppersurfer.tk%3A6969&amp;tr=udp%3A%2F%2Fexodus.desync.com%3A6969","seeders":1,"leechers":0,"uploader":"xxxlavalxxx","files":-1,"time":1389568912,"description":" &lt;a href=&quot;\nhttp://www.imdb.com/title/tt1335975/&quot; rel=&quot;nofollow&quot; target=&quot;_NEW&quot;&gt;\nhttp://www.imdb.com/title/tt1335975/&lt;/a&gt;\n\n\nA band of samurai set out to avenge the death and dishonor of their master at the hands of a ruthless shogun.\n\nDirector: Carl Rinsch\nWriters: Chris Morgan (screenplay), Hossein Amini (screenplay)\nStars: Keanu Reeves, Hiroyuki Sanada, Ko Shibasaki\nGenres: Action | Adventure | Fantasy\nCountry: USA\nLanguage: English | Japanese\n\n\n\nGeneral\nFormat                                   : AVI\nFormat/Info                              : Audio Video Interleave\nFile size                                : 696 MiB\nDuration                                 : 1h 49mn\nOverall bit rate                         : 892 Kbps\nWriting library                          : VirtualDub build 30080/release\n\nVideo\nID                                       : 0\nFormat                                   : MPEG-4 Visual\nFormat profile                           : Advanced Simple@L5\nFormat settings, BVOP                    : 2\nFormat settings, QPel                    : No\nFormat settings, GMC                     : No warppoints\nFormat settings, Matrix                  : Default (H.263)\nCodec ID                                 : XVID\nCodec ID/Hint                            : XviD\nDuration                                 : 1h 49mn\nBit rate                                 : 770 Kbps\nWidth                                    : 640 pixels\nHeight                                   : 272 pixels\nDisplay aspect ratio                     : 2.35:1\nFrame rate                               : 25.000 fps\nColor space                              : YUV\nChroma subsampling                       : 4:2:0\nBit depth                                : 8 bits\nScan type                                : Progressive\nCompression mode                         : Lossy\nBits/(Pixel*Frame)                       : 0.177\nStream size                              : 601 MiB (86%)\nWriting library                          : XviD 64\n\nAudio\nID                                       : 1\nFormat                                   : MPEG Audio\nFormat version                           : Version 1\nFormat profile                           : Layer 3\nMode                                     : Joint stereo\nMode extension                           : MS Stereo\nCodec ID                                 : 55\nCodec ID/Hint                            : MP3\nDuration                                 : 1h 49mn\nBit rate mode                            : Constant\nBit rate                                 : 112 Kbps\nChannel(s)                               : 2 channels\nSampling rate                            : 48.0 KHz\nCompression mode                         : Lossy\nStream size                              : 87.5 MiB (13%)\nAlignment                                : Split accross interleaves\nInterleave, duration                     : 40 ms (1.00 video frame)\nInterleave, preload duration             : 500 ms\n\n\nscreens\n &lt;a href=&quot;\nhttp://i.imgur.com/iz5vN6r.png&quot; rel=&quot;nofollow&quot; target=&quot;_NEW&quot;&gt;\nhttp://i.imgur.com/iz5vN6r.png&lt;/a&gt; &lt;a href=&quot;\nhttp://i.imgur.com/GLYk7Id.png&quot; rel=&quot;nofollow&quot; target=&quot;_NEW&quot;&gt;\nhttp://i.imgur.com/GLYk7Id.png&lt;/a&gt; &lt;a href=&quot;\nhttp://i.imgur.com/j1Dv1Ew.jpg&quot; rel=&quot;nofollow&quot; target=&quot;_NEW&quot;&gt;\nhttp://i.imgur.com/j1Dv1Ew.jpg&lt;/a&gt; &lt;a href=&quot;\nhttp://i.imgur.com/GMifKVU.jpg&quot; rel=&quot;nofollow&quot; target=&quot;_NEW&quot;&gt;\nhttp://i.imgur.com/GMifKVU.jpg&lt;/a&gt;","torrent":{"xt":"urn:btih:d9aabe7bad6ec643e9ad1f733cd0bf842eb0fd60","amp;dn":"47.Ronin.2013.CAM.XViD-MORS","amp;tr":["udp%3A%2F%2Ftracker.openbittorrent.com%3A80","udp%3A%2F%2Fopen.demonii.com%3A1337","udp%3A%2F%2Ftracker.coppersurfer.tk%3A6969","udp%3A%2F%2Fexodus.desync.com%3A6969"],"infoHash":"d9aabe7bad6ec643e9ad1f733cd0bf842eb0fd60","infoHashBuffer":{"type":"Buffer","data":[217,170,190,123,173,110,198,67,233,173,31,115,60,208,191,132,46,176,253,96]},"announce":[],"urlList":[]}}